<mxfile host="app.diagrams.net" modified="2024-01-16T22:03:30.529Z" agent="Mozilla/5.0 (Macintosh; Intel Mac OS X 10_15_7) AppleWebKit/605.1.15 (KHTML, like Gecko) Version/17.2.1 Safari/605.1.15" etag="jU_ibNO8qdlQ32TnqBh2" version="22.1.20" type="device">
  <diagram name="Seite-1" id="_ZIkLFeq1zZrE4218_E8">
    <mxGraphModel dx="1035" dy="689" grid="1" gridSize="10" guides="1" tooltips="1" connect="1" arrows="1" fold="1" page="1" pageScale="1" pageWidth="827" pageHeight="1169" math="0" shadow="0">
      <root>
        <mxCell id="0" />
        <mxCell id="1" parent="0" />
        <mxCell id="dfmC38gDe5B9Ryy8Encg-7" style="edgeStyle=orthogonalEdgeStyle;rounded=0;orthogonalLoop=1;jettySize=auto;html=1;entryX=0.5;entryY=1;entryDx=0;entryDy=0;endArrow=none;endFill=0;" edge="1" parent="1" source="dfmC38gDe5B9Ryy8Encg-1" target="dfmC38gDe5B9Ryy8Encg-3">
          <mxGeometry relative="1" as="geometry" />
        </mxCell>
        <mxCell id="dfmC38gDe5B9Ryy8Encg-8" style="edgeStyle=orthogonalEdgeStyle;rounded=0;orthogonalLoop=1;jettySize=auto;html=1;exitX=0;exitY=0.5;exitDx=0;exitDy=0;entryX=0.5;entryY=0;entryDx=0;entryDy=0;endArrow=none;endFill=0;" edge="1" parent="1" source="dfmC38gDe5B9Ryy8Encg-1" target="dfmC38gDe5B9Ryy8Encg-5">
          <mxGeometry relative="1" as="geometry" />
        </mxCell>
        <mxCell id="dfmC38gDe5B9Ryy8Encg-9" style="edgeStyle=orthogonalEdgeStyle;rounded=0;orthogonalLoop=1;jettySize=auto;html=1;entryX=0.5;entryY=1;entryDx=0;entryDy=0;endArrow=none;endFill=0;" edge="1" parent="1" source="dfmC38gDe5B9Ryy8Encg-1" target="dfmC38gDe5B9Ryy8Encg-4">
          <mxGeometry relative="1" as="geometry" />
        </mxCell>
        <mxCell id="dfmC38gDe5B9Ryy8Encg-10" style="edgeStyle=orthogonalEdgeStyle;rounded=0;orthogonalLoop=1;jettySize=auto;html=1;exitX=1;exitY=0.5;exitDx=0;exitDy=0;entryX=0.5;entryY=0;entryDx=0;entryDy=0;endArrow=none;endFill=0;" edge="1" parent="1" source="dfmC38gDe5B9Ryy8Encg-1" target="dfmC38gDe5B9Ryy8Encg-6">
          <mxGeometry relative="1" as="geometry" />
        </mxCell>
        <mxCell id="dfmC38gDe5B9Ryy8Encg-1" value="&lt;font&gt;&lt;font style=&quot;font-size: 18px;&quot;&gt;&lt;b&gt;Native API&lt;/b&gt;&lt;/font&gt;&lt;br&gt;&lt;font style=&quot;font-size: 11px;&quot;&gt;Core generated from &lt;br&gt;OpenAPI specifications&lt;/font&gt;&lt;/font&gt;" style="ellipse;whiteSpace=wrap;html=1;aspect=fixed;fillColor=#d5e8d4;strokeColor=#82b366;shadow=1;" vertex="1" parent="1">
          <mxGeometry x="360" y="360" width="160" height="160" as="geometry" />
        </mxCell>
        <mxCell id="dfmC38gDe5B9Ryy8Encg-3" value="&lt;p style=&quot;line-height: 120%; font-size: 11px;&quot;&gt;&lt;b style=&quot;font-size: 15px;&quot;&gt;&lt;font style=&quot;font-size: 15px;&quot;&gt;EasyDataverse&lt;br&gt;&lt;/font&gt;&lt;/b&gt;&lt;font style=&quot;font-size: 11px;&quot;&gt;User-friendly interface for &lt;br&gt;dataset handling&lt;/font&gt;&lt;/p&gt;" style="rounded=1;whiteSpace=wrap;html=1;arcSize=21;fillColor=#dae8fc;strokeColor=#6c8ebf;shadow=1;" vertex="1" parent="1">
          <mxGeometry x="160" y="360" width="190" height="60" as="geometry" />
        </mxCell>
        <mxCell id="dfmC38gDe5B9Ryy8Encg-4" value="&lt;font style=&quot;font-size: 15px;&quot;&gt;&lt;b&gt;DVCLI&lt;br&gt;&lt;/b&gt;&lt;/font&gt;&lt;font style=&quot;font-size: 11px;&quot;&gt;Command-line interface &lt;br&gt;for configuration&lt;/font&gt;" style="rounded=1;whiteSpace=wrap;html=1;arcSize=21;fillColor=#dae8fc;strokeColor=#6c8ebf;shadow=1;" vertex="1" parent="1">
          <mxGeometry x="530" y="360" width="190" height="60" as="geometry" />
        </mxCell>
        <mxCell id="dfmC38gDe5B9Ryy8Encg-5" value="&lt;font style=&quot;font-size: 15px;&quot;&gt;&lt;b&gt;DVUploader&lt;br&gt;&lt;/b&gt;&lt;/font&gt;&lt;font style=&quot;font-size: 11px;&quot;&gt;Native and direct upload &lt;br&gt;to Dataverse&lt;/font&gt;" style="rounded=1;whiteSpace=wrap;html=1;arcSize=21;fillColor=#dae8fc;strokeColor=#6c8ebf;shadow=1;" vertex="1" parent="1">
          <mxGeometry x="160" y="460" width="190" height="60" as="geometry" />
        </mxCell>
        <mxCell id="dfmC38gDe5B9Ryy8Encg-6" value="&lt;font style=&quot;font-size: 15px;&quot;&gt;&lt;b&gt;OpenAI Interface&lt;br&gt;&lt;/b&gt;&lt;/font&gt;&lt;font style=&quot;font-size: 11px;&quot;&gt;Harvest metadata from &lt;br&gt;textual data&lt;/font&gt;" style="rounded=1;whiteSpace=wrap;html=1;arcSize=21;fillColor=#dae8fc;strokeColor=#6c8ebf;shadow=1;" vertex="1" parent="1">
          <mxGeometry x="530" y="460" width="190" height="60" as="geometry" />
        </mxCell>
        <mxCell id="dfmC38gDe5B9Ryy8Encg-12" style="edgeStyle=orthogonalEdgeStyle;rounded=0;orthogonalLoop=1;jettySize=auto;html=1;entryX=0.5;entryY=0;entryDx=0;entryDy=0;" edge="1" parent="1" source="dfmC38gDe5B9Ryy8Encg-11" target="dfmC38gDe5B9Ryy8Encg-1">
          <mxGeometry relative="1" as="geometry" />
        </mxCell>
        <mxCell id="dfmC38gDe5B9Ryy8Encg-13" value="Supplies" style="edgeLabel;html=1;align=center;verticalAlign=middle;resizable=0;points=[];fontStyle=2" vertex="1" connectable="0" parent="dfmC38gDe5B9Ryy8Encg-12">
          <mxGeometry x="-0.1172" y="2" relative="1" as="geometry">
            <mxPoint as="offset" />
          </mxGeometry>
        </mxCell>
        <mxCell id="dfmC38gDe5B9Ryy8Encg-11" value="&lt;b&gt;&lt;font style=&quot;font-size: 14px;&quot;&gt;Dataverse&lt;/font&gt;&lt;br&gt;&lt;/b&gt;" style="shape=cylinder3;whiteSpace=wrap;html=1;boundedLbl=1;backgroundOutline=1;size=15;fillColor=#e1d5e7;strokeColor=#9673a6;shadow=1;" vertex="1" parent="1">
          <mxGeometry x="395" y="230" width="90" height="80" as="geometry" />
        </mxCell>
        <mxCell id="dfmC38gDe5B9Ryy8Encg-15" style="edgeStyle=orthogonalEdgeStyle;rounded=0;orthogonalLoop=1;jettySize=auto;html=1;entryX=0.5;entryY=1;entryDx=0;entryDy=0;exitX=1;exitY=0.5;exitDx=0;exitDy=0;" edge="1" parent="1" source="dfmC38gDe5B9Ryy8Encg-14" target="dfmC38gDe5B9Ryy8Encg-6">
          <mxGeometry relative="1" as="geometry" />
        </mxCell>
        <mxCell id="dfmC38gDe5B9Ryy8Encg-20" value="Tests" style="edgeLabel;html=1;align=center;verticalAlign=middle;resizable=0;points=[];fontStyle=2" vertex="1" connectable="0" parent="dfmC38gDe5B9Ryy8Encg-15">
          <mxGeometry x="0.6251" y="1" relative="1" as="geometry">
            <mxPoint x="1" y="-1" as="offset" />
          </mxGeometry>
        </mxCell>
        <mxCell id="dfmC38gDe5B9Ryy8Encg-16" style="edgeStyle=orthogonalEdgeStyle;rounded=0;orthogonalLoop=1;jettySize=auto;html=1;entryX=0.5;entryY=1;entryDx=0;entryDy=0;" edge="1" parent="1" source="dfmC38gDe5B9Ryy8Encg-14" target="dfmC38gDe5B9Ryy8Encg-1">
          <mxGeometry relative="1" as="geometry" />
        </mxCell>
        <mxCell id="dfmC38gDe5B9Ryy8Encg-19" value="Tests" style="edgeLabel;html=1;align=center;verticalAlign=middle;resizable=0;points=[];fontStyle=2" vertex="1" connectable="0" parent="dfmC38gDe5B9Ryy8Encg-16">
          <mxGeometry x="0.183" y="3" relative="1" as="geometry">
            <mxPoint x="3" y="8" as="offset" />
          </mxGeometry>
        </mxCell>
        <mxCell id="dfmC38gDe5B9Ryy8Encg-17" style="edgeStyle=orthogonalEdgeStyle;rounded=0;orthogonalLoop=1;jettySize=auto;html=1;entryX=0.5;entryY=1;entryDx=0;entryDy=0;exitX=0;exitY=0.5;exitDx=0;exitDy=0;" edge="1" parent="1" source="dfmC38gDe5B9Ryy8Encg-14" target="dfmC38gDe5B9Ryy8Encg-5">
          <mxGeometry relative="1" as="geometry" />
        </mxCell>
        <mxCell id="dfmC38gDe5B9Ryy8Encg-18" value="Tests" style="edgeLabel;html=1;align=center;verticalAlign=middle;resizable=0;points=[];fontStyle=2" vertex="1" connectable="0" parent="dfmC38gDe5B9Ryy8Encg-17">
          <mxGeometry x="0.433" y="1" relative="1" as="geometry">
            <mxPoint x="1" y="-21" as="offset" />
          </mxGeometry>
        </mxCell>
        <mxCell id="dfmC38gDe5B9Ryy8Encg-22" style="edgeStyle=orthogonalEdgeStyle;rounded=0;orthogonalLoop=1;jettySize=auto;html=1;entryX=0.5;entryY=0;entryDx=0;entryDy=0;" edge="1" parent="1" source="dfmC38gDe5B9Ryy8Encg-14" target="dfmC38gDe5B9Ryy8Encg-21">
          <mxGeometry relative="1" as="geometry" />
        </mxCell>
        <mxCell id="dfmC38gDe5B9Ryy8Encg-23" value="Publishes to" style="edgeLabel;html=1;align=center;verticalAlign=middle;resizable=0;points=[];fontStyle=2" vertex="1" connectable="0" parent="dfmC38gDe5B9Ryy8Encg-22">
          <mxGeometry x="-0.1912" relative="1" as="geometry">
            <mxPoint as="offset" />
          </mxGeometry>
        </mxCell>
        <mxCell id="dfmC38gDe5B9Ryy8Encg-14" value="&lt;font style=&quot;font-size: 15px;&quot;&gt;&lt;b&gt;CI/CD&lt;/b&gt;&lt;br&gt;&lt;/font&gt;&lt;font style=&quot;font-size: 11px;&quot;&gt;Uses the Dataverse Action&lt;/font&gt;" style="shape=hexagon;perimeter=hexagonPerimeter2;whiteSpace=wrap;html=1;fixedSize=1;fillColor=#f8cecc;strokeColor=#b85450;shadow=1;" vertex="1" parent="1">
          <mxGeometry x="350" y="580" width="180" height="80" as="geometry" />
        </mxCell>
        <mxCell id="dfmC38gDe5B9Ryy8Encg-21" value="&lt;b style=&quot;font-size: 15px;&quot;&gt;PyPI&lt;/b&gt;" style="rhombus;whiteSpace=wrap;html=1;fillColor=#f5f5f5;strokeColor=#666666;fontColor=#333333;shadow=1;fontSize=15;" vertex="1" parent="1">
          <mxGeometry x="400" y="720" width="80" height="80" as="geometry" />
        </mxCell>
      </root>
    </mxGraphModel>
  </diagram>
</mxfile>
